# xmcd
#
# Track frame offsets:
#	150
#	15315
#	28255
#	39830
#	54090
#	69640
#	83380
#	96540
#	115820
#	129270
#	140790
#	154310
#
# Disc length: 2250 seconds
#
# Revision: 0
# Processed by: cddbd v1.5.2PL0 Copyright (c) Steve Scherf et al.
# Submitted via: EasyCDDAExtractor 16.0.6.1
#
DISCID=9408c80c
DTITLE=Συλλογικός δίσκος - Τα χρυσά κλασικά λαϊκά 1
DYEAR=1996
DGENRE=Λαϊκή
TTITLE0=Τσιτσάνης Βασίλης - Δηλητήριο στη φλέβα
TTITLE1=Νίνου Μαρίκα - Απόψε κάνεις μπαμ
TTITLE2=Χιώτης Μανώλης - Φέρε στα παιδιά να πιούνε
TTITLE3=Γαβαλάς Πάνος - Μού σπάσανε τον μπαγλαμά
TTITLE4=Περπινιάδης Βαγγέλης - Έχεις κορμί αράπικο
TTITLE5=Αγγελόπουλος Μανώλης - Δυναμίτη με φυτήλι
TTITLE6=Χρυσάφη Άννα - Μαντουμπάλα (Μαντουβάλα)
TTITLE7=Λίντα Μαίρη - Ξανθιά τσιγγάνα
TTITLE8=Μαρίνος Πάνος - Απαλλάχτηκα από σένα
TTITLE9=Ζαγοραίος Σπύρος - Ένας μάγκας στο Βοτανικό
TTITLE10=Ντάλια Ρένα - Αγάπη επικίνδυνη
TTITLE11=Μπίνης Τάκης - Δεν πάω σπίτι μου απόψε
EXTD=
EXTT0=
EXTT1=
EXTT2=
EXTT3=
EXTT4=
EXTT5=
EXTT6=
EXTT7=
EXTT8=
EXTT9=
EXTT10=
EXTT11=
PLAYORDER=
